Coordinates
version=1
nRows=17
nColumns=40
inDegrees=yes

Units are S.I. units (second, meters, Newtons, ...)
If the header above contains a line with 'inDegrees', this indicates whether rotational values are in degrees (yes) or radians (no).

endheader
time	pelvis_tilt	pelvis_list	pelvis_rotation	pelvis_tx	pelvis_ty	pelvis_tz	hip_flexion_r	hip_adduction_r	hip_rotation_r	knee_angle_r	knee_angle_r_beta	ankle_angle_r	subtalar_angle_r	mtp_angle_r	hip_flexion_l	hip_adduction_l	hip_rotation_l	knee_angle_l	knee_angle_l_beta	ankle_angle_l	subtalar_angle_l	mtp_angle_l	lumbar_extension	lumbar_bending	lumbar_rotation	arm_flex_r	arm_add_r	arm_rot_r	elbow_flex_r	pro_sup_r	wrist_flex_r	wrist_dev_r	arm_flex_l	arm_add_l	arm_rot_l	elbow_flex_l	pro_sup_l	wrist_flex_l	wrist_dev_l
      7.82500000	    -21.78908640	     -0.72988140	      7.09014206	     -0.25767308	      1.02125099	      0.01427844	     92.83634571	    -11.22169547	      5.48379282	     82.39222209	      1.43801555	     -4.95215357	    -13.17506560	      0.00000000	     76.67748858	     -1.58997411	      7.12264005	     94.11182072	      1.64256114	    -11.35651634	    -15.45857830	      0.00000000	    -32.28352382	      2.19249008	     -2.29158816	     86.37047016	    -14.55935780	     51.53008742	     19.68109349	     89.22825056	      0.00000000	      0.00000000	     89.19049760	      0.92231625	     21.09592750	     11.00106902	     89.42158673	      0.00000000	      0.00000000
      7.83333333	    -21.56533828	     -0.60272450	      6.93427941	     -0.25713833	      1.02129456	      0.01475347	     90.58849691	    -11.30265580	      4.62956810	     79.58264483	      1.38897918	     -5.85123113	    -13.84695927	      0.00000000	     78.00158225	     -1.66940067	      7.23762698	     96.76759472	      1.68891314	    -11.00333607	    -15.30575964	      0.00000000	    -32.51031322	      1.86786015	     -2.20538036	     86.27035155	    -14.60148685	     51.33883279	     19.63868611	     89.22768755	      0.00000000	      0.00000000	     89.19060084	      0.94839501	     21.52777804	     11.06059279	     89.42241548	      0.00000000	      0.00000000
      7.84166667	    -21.86617886	     -0.41342849	      7.09743708	     -0.25726431	      1.02107887	      0.01482787	     88.82716206	    -11.69374411	      3.90671601	     76.63926960	      1.33760759	     -7.06355409	    -14.64948032	      0.00000000	     79.84005167	     -1.30704327	      7.24558901	     99.15012727	      1.73049617	    -10.99398344	    -15.82911181	      0.00000000	    -32.21329118	      1.58416659	     -2.43192975	     85.80597253	    -14.54889220	     48.68876645	     19.92964287	     89.23541577	      0.00000000	      0.00000000	     89.18938226	      1.08047239	     20.62307679	     11.15650741	     89.42027174	      0.00000000	      0.00000000
      7.85000000	    -21.59297135	     -0.20183848	      6.95262651	     -0.25661420	      1.02149083	      0.01533206	     86.39774420	    -11.73281190	      3.16110557	     73.79743465	      1.28800821	     -8.00050516	    -15.15607950	      0.00000000	     81.10331162	     -1.38539623	      7.27374016	    101.56664494	      1.77267236	    -10.50608545	    -15.40804078	      0.00000000	    -32.52501230	      1.19038998	     -2.39758067	     86.07388181	    -14.72016119	     51.37979553	     19.49845985	     89.22637656	      0.00000000	      0.00000000	     89.20304282	      1.11574111	     21.11937579	     11.18582245	     89.42147451	      0.00000000	      0.00000000
      7.85833333	    -21.43896049	     -0.04664228	      7.01564100	     -0.25597095	      1.02178914	      0.01575829	     84.08919065	    -12.04754983	      2.23692154	     71.05480819	      1.24014035	     -8.91730084	    -15.48970199	      0.00000000	     82.54941139	     -1.21709640	      7.37976632	    103.89643033	      1.81333479	    -10.14131579	    -15.46821126	      0.00000000	    -32.69410751	      0.91022359	     -2.51976884	     85.95009830	    -14.77887629	     51.37815605	     19.44164107	     89.22680657	      0.00000000	      0.00000000	     89.20318379	      1.16296889	     21.45152277	     11.22042819	     89.41883791	      0.00000000	      0.00000000
      7.86666667	    -21.39191574	      0.53265464	      7.10777912	     -0.25517100	      1.02188681	      0.01578778	     82.07488368	    -12.54745962	      1.75508793	     68.54775090	      1.19638395	     -9.73873336	    -15.39176701	      0.00000000	     84.03501157	     -0.84832580	      7.03560241	    106.04561438	      1.85084513	     -9.93043425	    -15.55885848	      0.00000000	    -32.76747533	      0.25646316	     -2.92042086	     85.77899887	    -14.76512661	     51.29451229	     19.25559784	     89.17752791	      0.00000000	      0.00000000	     89.22953453	      1.24328161	     21.38424821	     11.08598989	     89.41498158	      0.00000000	      0.00000000
      7.87500000	    -21.24238775	      0.41208561	      7.21706935	     -0.25460709	      1.02252787	      0.01617042	     79.66414469	    -12.68566695	      0.69231097	     65.83617638	      1.14905804	    -10.74575925	    -15.85791381	      0.00000000	     85.53934549	     -0.98835249	      7.34294957	    108.05968041	      1.88599721	     -9.39718558	    -15.08982848	      0.00000000	    -32.93398334	      0.28554995	     -2.89132872	     85.74409520	    -14.90493904	     51.70043108	     19.19880190	     89.22104956	      0.00000000	      0.00000000	     89.19921095	      1.34840268	     21.05447977	     11.28851297	     89.41975430	      0.00000000	      0.00000000
      7.88333333	    -21.15334082	      1.09096703	      7.25227019	     -0.25356825	      1.02282448	      0.01663101	     77.64394800	    -13.15065246	      0.36142584	     63.52758461	      1.10876552	    -11.39317420	    -15.63012728	      0.00000000	     87.00149899	     -0.67627303	      6.92487187	    110.06001979	      1.92090972	     -8.89744651	    -15.17797485	      0.00000000	    -33.08402360	     -0.54779147	     -3.28829949	     85.52356281	    -14.95395222	     51.73139343	     19.13200877	     89.21672751	      0.00000000	      0.00000000	     89.19084279	      1.40460153	     21.07665069	     11.30867087	     89.42326903	      0.00000000	      0.00000000
      7.89166667	    -21.10239063	      1.63525606	      7.25606269	     -0.25267527	      1.02313340	      0.01692411	     75.56867615	    -13.38211963	      0.23387397	     61.30177763	      1.06991786	    -11.79408617	    -15.41542016	      0.00000000	     88.51043505	     -0.53666665	      6.54638991	    111.88193303	      1.95270810	     -8.52808986	    -15.15670848	      0.00000000	    -33.18167157	     -1.21852985	     -3.54982294	     85.33740475	    -15.02812551	     51.75316152	     19.04932805	     89.24316820	      0.00000000	      0.00000000	     89.16983418	      1.49622526	     21.12204948	     11.30757561	     89.44003298	      0.00000000	      0.00000000
      7.90000000	    -20.93000977	      2.02009088	      7.13709656	     -0.25173954	      1.02374368	      0.01740504	     73.37824571	    -13.50730049	     -0.10034238	     59.08412009	      1.03121243	    -12.37415957	    -14.95652714	      0.00000000	     89.89717572	     -0.58262020	      6.37156767	    113.59284899	      1.98256922	     -8.03336842	    -15.11687448	      0.00000000	    -33.42238451	     -1.79156682	     -3.63427574	     85.23997218	    -15.11066609	     51.81719224	     18.96033754	     89.22269193	      0.00000000	      0.00000000	     89.17587939	      1.58799005	     21.19906734	     11.33198095	     89.42121096	      0.00000000	      0.00000000
      7.90833333	    -19.87488284	      1.14645109	      6.85103212	     -0.24987527	      1.02537065	      0.01910949	     69.88675556	    -12.76248205	     -1.61925793	     56.81356301	      0.99158373	    -12.63476028	    -14.26939397	      0.00000000	     90.67358785	     -1.14649371	      7.88837261	    115.46310186	      2.01521129	     -6.87524915	    -13.62533671	      0.00000000	    -34.42978976	     -1.26334749	     -2.83108722	     85.33286771	    -15.26280367	     52.73414921	     18.74884860	     89.21533581	      0.00000000	      0.00000000	     89.21397284	      1.69346592	     21.44983069	     11.40835589	     89.41901822	      0.00000000	      0.00000000
      7.91666667	    -19.88594931	      1.65719079	      6.78597557	     -0.24897818	      1.02565551	      0.01961342	     68.03387191	    -12.86569708	     -1.46447482	     55.00403072	      0.96000144	    -12.84545230	    -14.00130333	      0.00000000	     92.28738679	     -1.04719278	      7.56849043	    116.91974679	      2.04063454	     -5.95909940	    -13.79295355	      0.00000000	    -34.45721750	     -1.94736838	     -3.02798939	     85.12477390	    -15.33788228	     52.78251996	     18.67788181	     89.22048487	      0.00000000	      0.00000000	     89.17791211	      1.79754591	     21.54037034	     11.38207946	     89.42546536	      0.00000000	      0.00000000
      7.92500000	    -19.41983005	      1.71590038	      6.59645240	     -0.24771412	      1.02657169	      0.02045459	     65.63277496	    -12.83326047	     -2.15401662	     53.25601385	      0.92949279	    -13.06118904	    -12.78461929	      0.00000000	     93.50900707	     -1.23962886	      7.79167319	    118.34382417	      2.06548938	     -5.20008890	    -13.50382651	      0.00000000	    -34.95179084	     -2.23281781	     -2.83881918	     85.05163503	    -15.43320852	     53.00992071	     18.58756966	     89.21786680	      0.00000000	      0.00000000	     89.18138755	      1.89320916	     21.73901935	     11.39832793	     89.42239645	      0.00000000	      0.00000000
      7.93333333	    -19.32300966	      2.17034003	      6.61861105	     -0.24670993	      1.02695036	      0.02077154	     63.86005689	    -13.13563893	     -2.31132035	     51.84692993	      0.90489963	    -13.23826131	    -12.59194783	      0.00000000	     95.02780165	     -1.10631595	      7.48970166	    119.46951633	      2.08513642	     -4.80113197	    -13.50097152	      0.00000000	    -35.09688406	     -2.80623188	     -3.07733062	     84.84578439	    -15.53730211	     53.03225369	     18.56581187	     89.21166583	      0.00000000	      0.00000000	     89.16652074	      2.00867448	     21.76604572	     11.38764098	     89.42128278	      0.00000000	      0.00000000
      7.94166667	    -18.45459072	      2.06826569	      6.66387123	     -0.24507908	      1.02842666	      0.02116881	     61.05204831	    -13.20054231	     -3.25803029	     50.44258831	      0.88038925	    -13.10400217	    -11.40637552	      0.00000000	     95.79943372	     -0.97439264	      7.93343527	    120.48889928	      2.10292800	     -4.34614967	    -13.13763076	      0.00000000	    -35.99627962	     -2.73666648	     -2.98965341	     84.77868688	    -15.63758545	     53.14239443	     18.53865202	     89.20642663	      0.00000000	      0.00000000	     89.16442079	      2.14977386	     21.56519769	     11.45391635	     89.41381627	      0.00000000	      0.00000000
      7.95000000	    -18.21567445	      2.52138471	      6.56748510	     -0.24379784	      1.02880176	      0.02146795	     59.44281490	    -13.54671807	     -3.66329586	     49.56466245	      0.86506655	    -13.45119037	    -11.22006652	      0.00000000	     97.04735974	     -1.00263089	      7.53343114	    121.24577716	      2.11613802	     -4.03463968	    -13.18899623	      0.00000000	    -36.26047728	     -3.32669554	     -3.11750653	     84.55848223	    -15.76478176	     53.13651119	     18.56620009	     89.21468009	      0.00000000	      0.00000000	     89.10740537	      2.26862360	     21.44326089	     11.47382156	     89.41815631	      0.00000000	      0.00000000
      7.95833333	    -17.28130882	      2.65568870	      6.64148275	     -0.24196023	      1.03037881	      0.02157296	     56.89967435	    -13.83046574	     -4.48171695	     48.76462210	      0.85110321	    -13.26011021	    -10.29273798	      0.00000000	     97.53288095	     -0.84798948	      7.51487784	    121.94394672	      2.12832337	     -3.69959888	    -13.29834736	      0.00000000	    -37.25065875	     -3.41509826	     -3.20097684	     84.37799724	    -15.85418007	     52.75904990	     18.67713415	     89.20917046	      0.00000000	      0.00000000	     89.11762482	      2.39500664	     20.80686152	     11.53329811	     89.41513932	      0.00000000	      0.00000000
